# xmcd
#
# Track frame offsets:
#  150
#  12633
#  27306
#  47780
#  60587
#  76986
#  90042
#  110633
#  123494
#  147147
#  160633
#  183932
#  195844
#  212806
#
# Disc length: 3151 seconds
#
# Revision: 0
# Processed by: cddbd v1.5.1PL0 Copyright (c) Steve Scherf et al.
# Submitted via: Collectorz.com_Music_Collector 6.9
#
DISCID=af0c4d0e
DTITLE=Phil Berkowitz - Louis' Blues
DYEAR=2004
DGENRE=Blues -  Blues Harmonica
TTITLE0=Salt Pork, West Virginia
TTITLE1=Let The Good Times Roll
TTITLE2=I'm Gonna Move To The Outskirts Of Town
TTITLE3=A Dollar Down
TTITLE4=Is You Is Or Is You Ain't My Baby?
TTITLE5=Caldonia
TTITLE6=Do You Call That A Buddy?
TTITLE7=Cat Scratchin'
TTITLE8=Blue Light Boogie
TTITLE9=If You're So Smart, How Come You  Ain't Rich?
TTITLE10=Early In The Morning
TTITLE11=Choo Choo Ch' Bishop
TTITLE12=Three Handed Woman
TTITLE13=Saturday Night Fish 
EXTD=
EXTT0=
EXTT1=
EXTT2=
EXTT3=
EXTT4=
EXTT5=
EXTT6=
EXTT7=
EXTT8=
EXTT9=
EXTT10=
EXTT11=
EXTT12=
EXTT13=
PLAYORDER=
